# 3ds Max Wavefront OBJ Exporter v0.97b - (c)2007 guruware
# File Created: 29.09.2018 10:06:10

mtllib slayer3.mtl

#
# object slayer3
#

v  -8.0328 0.0000 70.6901
v  -3.8798 0.0000 70.3451
v  -0.8181 -0.0000 81.2242
v  -2.6406 -0.0000 81.1554
v  1.4286 0.0000 69.9054
v  1.4423 -0.0000 81.3067
v  -12.5138 0.0000 -8.1073
v  -4.5170 0.0000 -10.2262
v  2.3819 0.0000 -0.3362
v  -7.1271 0.0000 1.0005
v  8.1305 0.0000 -13.3136
v  14.2250 0.0000 -1.9867
v  2.0579 0.0000 -81.3067
v  2.7262 0.0000 -81.3067
v  -1.9987 0.0000 -71.1511
v  -6.6029 0.0000 -70.4478
v  -1.4204 0.0000 -60.9939
v  -7.1564 0.0000 -59.7384
v  2.2272 0.0000 -50.9820
v  -4.1230 0.0000 -50.9820
v  0.7593 0.0000 -40.9784
v  -6.6769 0.0000 -42.1353
v  -2.9860 0.0000 -30.9785
v  -12.0748 0.0000 -33.1731
v  -6.4002 0.0000 -20.6573
v  -16.0244 0.0000 -20.6573
v  -11.8593 0.0000 60.2639
v  -6.0105 0.0000 60.0647
v  -14.1209 0.0000 49.1602
v  -7.6421 0.0000 49.7291
v  -13.6804 0.0000 38.5559
v  -7.5346 0.0000 39.7532
v  -8.1930 0.0000 29.1039
v  -1.2308 0.0000 29.8435
v  -4.6864 0.0000 17.4291
v  3.2172 0.0000 19.5381
v  -3.9220 0.0000 9.6674
v  4.7542 0.0000 9.6674
v  3.6276 0.0000 -81.3067
v  3.4360 0.0000 -71.9964
v  5.7160 0.0000 -62.5382
v  10.6233 0.0000 -50.9820
v  10.8741 0.0000 -39.5074
v  9.2236 0.0000 -28.1449
v  6.0917 0.0000 -20.6573
v  1.5277 0.0000 59.8079
v  0.6636 0.0000 50.4527
v  2.1854 0.0000 41.5762
v  8.7219 0.0000 30.7138
v  13.8881 0.0000 22.3597
v  16.0244 0.0000 9.6674
# 51 vertices

vn -0.0000 -1.0000 -0.0000
vn 0.0000 -1.0000 -0.0000
vn -0.0000 -1.0000 0.0000
vn 0.0000 -1.0000 0.0000
# 4 vertex normals

vt 0.7056 0.9353 0.0000
vt 0.7295 0.9332 0.0000
vt 0.7471 0.9994 0.0000
vt 0.7366 0.9990 0.0000
vt 0.7601 0.9306 0.0000
vt 0.7602 0.9999 0.0000
vt 0.6798 0.4559 0.0000
vt 0.7258 0.4430 0.0000
vt 0.7656 0.5032 0.0000
vt 0.7108 0.5113 0.0000
vt 0.7987 0.4243 0.0000
vt 0.8338 0.4932 0.0000
vt 0.7637 0.0106 0.0000
vt 0.7676 0.0106 0.0000
vt 0.7403 0.0724 0.0000
vt 0.7138 0.0766 0.0000
vt 0.7437 0.1342 0.0000
vt 0.7106 0.1418 0.0000
vt 0.7647 0.1951 0.0000
vt 0.7281 0.1951 0.0000
vt 0.7562 0.2559 0.0000
vt 0.7134 0.2489 0.0000
vt 0.7347 0.3168 0.0000
vt 0.6823 0.3034 0.0000
vt 0.7150 0.3796 0.0000
vt 0.6596 0.3795 0.0000
vt 0.6835 0.8719 0.0000
vt 0.7172 0.8707 0.0000
vt 0.6705 0.8043 0.0000
vt 0.7078 0.8078 0.0000
vt 0.6731 0.7398 0.0000
vt 0.7085 0.7471 0.0000
vt 0.7047 0.6823 0.0000
vt 0.7448 0.6868 0.0000
vt 0.7249 0.6113 0.0000
vt 0.7704 0.6241 0.0000
vt 0.7293 0.5641 0.0000
vt 0.7792 0.5641 0.0000
vt 0.7727 0.0106 0.0000
vt 0.7716 0.0672 0.0000
vt 0.7848 0.1248 0.0000
vt 0.8130 0.1951 0.0000
vt 0.8145 0.2649 0.0000
vt 0.8050 0.3341 0.0000
vt 0.7869 0.3796 0.0000
vt 0.7607 0.8691 0.0000
vt 0.7557 0.8122 0.0000
vt 0.7644 0.7582 0.0000
vt 0.8021 0.6922 0.0000
vt 0.8319 0.6413 0.0000
vt 0.8442 0.5641 0.0000
# 51 texture coords

g slayer3
usemtl Material__25
s 1
f 1/1/1 2/2/1 3/3/2 4/4/2 
f 5/5/1 6/6/2 3/3/2 2/2/1 
s off
f 7/7/3 8/8/3 9/9/3 10/10/3 
f 8/8/2 11/11/2 12/12/2 9/9/2 
f 13/13/1 14/14/1 15/15/1 16/16/1 
f 16/16/3 15/15/3 17/17/3 18/18/3 
f 18/18/2 17/17/2 19/19/2 20/20/2 
f 20/20/3 19/19/3 21/21/3 22/22/3 
f 22/22/2 21/21/2 23/23/2 24/24/2 
f 24/24/4 23/23/4 25/25/4 26/26/4 
f 26/26/1 25/25/1 8/8/1 7/7/1 
f 2/2/4 1/1/4 27/27/4 28/28/4 
f 28/28/2 27/27/2 29/29/2 30/30/2 
f 30/30/2 29/29/2 31/31/2 32/32/2 
f 32/32/3 31/31/3 33/33/3 34/34/3 
f 34/34/3 33/33/3 35/35/3 36/36/3 
f 36/36/1 35/35/1 37/37/1 38/38/1 
f 38/38/3 37/37/3 10/10/3 9/9/3 
f 14/14/1 39/39/1 40/40/1 15/15/1 
f 15/15/3 40/40/3 41/41/3 17/17/3 
f 17/17/1 41/41/1 42/42/1 19/19/1 
f 19/19/1 42/42/1 43/43/1 21/21/1 
f 21/21/3 43/43/3 44/44/3 23/23/3 
f 23/23/1 44/44/1 45/45/1 25/25/1 
f 25/25/3 45/45/3 11/11/3 8/8/3 
f 5/5/4 2/2/4 28/28/4 46/46/4 
f 46/46/3 28/28/3 30/30/3 47/47/3 
f 47/47/1 30/30/1 32/32/1 48/48/1 
f 48/48/3 32/32/3 34/34/3 49/49/3 
f 49/49/4 34/34/4 36/36/4 50/50/4 
f 50/50/2 36/36/2 38/38/2 51/51/2 
f 51/51/4 38/38/4 9/9/4 12/12/4 
# 32 polygons

