# 3ds Max Wavefront OBJ Exporter v0.97b - (c)2007 guruware
# File Created: 29.09.2018 10:05:55

mtllib slayer2.mtl

#
# object slayer2
#

v  -1.3499 0.0000 -82.1333
v  -0.6869 0.0000 -82.1333
v  -1.7253 0.0000 -71.1822
v  -4.8280 0.0000 -71.1822
v  -0.6085 0.0000 -60.2311
v  -7.5103 0.0000 -60.2311
v  1.5005 0.0000 -49.1025
v  -6.5550 0.0000 -49.1720
v  -10.3760 0.0000 -38.3289
v  -0.3010 0.0000 -38.3289
v  2.8411 0.0000 -27.5553
v  -7.3760 0.0000 -27.5486
v  -0.3049 0.0000 -16.3067
v  -10.1063 0.0000 -16.3086
v  2.8217 0.0000 -5.4756
v  -6.8771 0.0000 -5.4756
v  -0.5604 -0.0000 5.3556
v  -11.5768 -0.0000 5.3613
v  -3.5570 -0.0000 16.4267
v  -13.3045 -0.0000 16.4267
v  -0.5503 -0.0000 27.3778
v  -11.3696 -0.0000 27.3778
v  4.5042 -0.0000 38.3289
v  -8.1738 -0.0000 38.3289
v  -0.5057 -0.0000 49.2800
v  -9.0770 -0.0000 49.2800
v  -2.3925 -0.0000 60.2311
v  -8.5752 -0.0000 60.2311
v  -0.5959 -0.0000 71.1822
v  -5.5651 -0.0000 71.1822
v  -1.1324 -0.0000 82.1333
v  -6.0072 -0.0000 82.1333
v  -0.0214 0.0000 -82.1333
v  1.3773 0.0000 -71.1822
v  6.3982 0.0000 -60.2311
v  11.1813 0.0000 -49.1720
v  9.6082 0.0000 -38.3289
v  10.7100 0.0000 -27.5486
v  9.1303 0.0000 -16.3086
v  12.1944 0.0000 -5.4756
v  10.4374 -0.0000 5.3613
v  7.6974 -0.0000 16.4267
v  10.2598 -0.0000 27.3778
v  13.3045 -0.0000 38.3289
v  9.0400 -0.0000 49.2800
v  8.5253 -0.0000 60.2311
v  5.8089 -0.0000 71.1822
v  4.9117 -0.0000 82.1333
# 48 vertices

vn 0.0000 -1.0000 -0.0000
vn -0.0000 -1.0000 -0.0000
# 2 vertex normals

vt 0.2238 0.0001 0.0000
vt 0.2277 0.0001 0.0000
vt 0.2217 0.0667 0.0000
vt 0.2038 0.0667 0.0000
vt 0.2281 0.1333 0.0000
vt 0.1884 0.1333 0.0000
vt 0.2403 0.2010 0.0000
vt 0.1939 0.2006 0.0000
vt 0.1718 0.2665 0.0000
vt 0.2299 0.2666 0.0000
vt 0.2480 0.3321 0.0000
vt 0.1891 0.3321 0.0000
vt 0.2299 0.4006 0.0000
vt 0.1734 0.4005 0.0000
vt 0.2479 0.4665 0.0000
vt 0.1920 0.4664 0.0000
vt 0.2284 0.5324 0.0000
vt 0.1649 0.5324 0.0000
vt 0.2111 0.5997 0.0000
vt 0.1550 0.5997 0.0000
vt 0.2284 0.6663 0.0000
vt 0.1661 0.6663 0.0000
vt 0.2576 0.7330 0.0000
vt 0.1845 0.7329 0.0000
vt 0.2287 0.7996 0.0000
vt 0.1793 0.7996 0.0000
vt 0.2178 0.8662 0.0000
vt 0.1822 0.8662 0.0000
vt 0.2282 0.9328 0.0000
vt 0.1996 0.9328 0.0000
vt 0.2251 0.9995 0.0000
vt 0.1970 0.9995 0.0000
vt 0.2315 0.0001 0.0000
vt 0.2395 0.0667 0.0000
vt 0.2685 0.1333 0.0000
vt 0.2960 0.2006 0.0000
vt 0.2870 0.2666 0.0000
vt 0.2933 0.3322 0.0000
vt 0.2842 0.4006 0.0000
vt 0.3019 0.4665 0.0000
vt 0.2917 0.5324 0.0000
vt 0.2759 0.5997 0.0000
vt 0.2907 0.6664 0.0000
vt 0.3082 0.7330 0.0000
vt 0.2837 0.7996 0.0000
vt 0.2807 0.8662 0.0000
vt 0.2651 0.9329 0.0000
vt 0.2599 0.9995 0.0000
# 48 texture coords

g slayer2
usemtl Material__25
s 1
f 1/1/1 2/2/1 3/3/1 4/4/1 
f 4/4/1 3/3/1 5/5/1 6/6/1 
f 6/6/1 5/5/1 7/7/2 8/8/2 
f 9/9/2 8/8/2 7/7/2 10/10/1 
f 9/9/2 10/10/1 11/11/2 12/12/2 
f 12/12/2 11/11/2 13/13/2 14/14/1 
f 14/14/1 13/13/2 15/15/2 16/16/1 
f 16/16/1 15/15/2 17/17/2 18/18/1 
f 18/18/1 17/17/2 19/19/1 20/20/1 
f 20/20/1 19/19/1 21/21/1 22/22/1 
f 22/22/1 21/21/1 23/23/1 24/24/1 
f 24/24/1 23/23/1 25/25/1 26/26/1 
f 26/26/1 25/25/1 27/27/1 28/28/1 
f 28/28/1 27/27/1 29/29/1 30/30/1 
f 30/30/1 29/29/1 31/31/1 32/32/1 
f 33/33/1 34/34/1 3/3/1 2/2/1 
f 34/34/1 35/35/2 5/5/1 3/3/1 
f 35/35/2 36/36/1 7/7/2 5/5/1 
f 7/7/2 36/36/1 37/37/1 10/10/1 
f 37/37/1 38/38/1 11/11/2 10/10/1 
f 38/38/1 39/39/1 13/13/2 11/11/2 
f 39/39/1 40/40/1 15/15/2 13/13/2 
f 40/40/1 41/41/1 17/17/2 15/15/2 
f 41/41/1 42/42/1 19/19/1 17/17/2 
f 42/42/1 43/43/1 21/21/1 19/19/1 
f 43/43/1 44/44/1 23/23/1 21/21/1 
f 44/44/1 45/45/1 25/25/1 23/23/1 
f 45/45/1 46/46/1 27/27/1 25/25/1 
f 46/46/1 47/47/1 29/29/1 27/27/1 
f 47/47/1 48/48/1 31/31/1 29/29/1 
# 30 polygons

