# 3ds Max Wavefront OBJ Exporter v0.97b - (c)2007 guruware
# File Created: 29.09.2018 10:05:36

mtllib slayer1.mtl

#
# object slayer1
#

v  -3.7260 0.0000 70.5045
v  -0.7438 0.0000 70.5045
v  -0.8707 -0.0000 81.4556
v  -2.7086 -0.0000 81.4556
v  3.1000 0.0000 70.5045
v  1.4080 -0.0000 81.4556
v  -10.3439 0.0000 -10.5409
v  -1.3055 0.0000 -10.5409
v  -1.2963 0.0000 -0.4102
v  -10.2844 0.0000 -0.4102
v  10.3439 0.0000 -10.5409
v  10.2882 0.0000 -0.4102
v  -1.7611 0.0000 -81.4556
v  -0.5539 0.0000 -81.4556
v  -0.8227 0.0000 -71.3249
v  -4.8135 0.0000 -71.3249
v  -0.9783 0.0000 -61.1942
v  -6.5938 0.0000 -61.1942
v  -1.0944 0.0000 -51.0636
v  -7.8986 0.0000 -51.0636
v  -1.1789 0.0000 -40.9329
v  -8.8109 0.0000 -40.9329
v  -1.2648 0.0000 -30.8022
v  -9.7753 0.0000 -30.8022
v  -1.2694 0.0000 -20.6716
v  -9.8999 0.0000 -20.6716
v  -4.8154 0.0000 60.3738
v  -0.8367 0.0000 60.3738
v  -5.9014 0.0000 50.2431
v  -0.9268 0.0000 50.2431
v  -7.4578 0.0000 40.1125
v  -1.0559 0.0000 40.1125
v  -8.2776 0.0000 29.9818
v  -1.1201 0.0000 29.9818
v  -8.9167 0.0000 19.8511
v  -1.1722 0.0000 19.8511
v  -9.5897 0.0000 9.7205
v  -1.2326 0.0000 9.7205
v  1.0042 0.0000 -81.4556
v  4.3198 0.0000 -71.3249
v  6.2587 0.0000 -61.1943
v  7.6754 0.0000 -51.0636
v  8.6580 0.0000 -40.9329
v  9.7052 0.0000 -30.8022
v  9.8545 0.0000 -20.6716
v  4.2914 0.0000 60.3738
v  5.4849 0.0000 50.2431
v  7.1956 0.0000 40.1125
v  8.1054 0.0000 29.9818
v  8.8098 0.0000 19.8511
v  9.5386 0.0000 9.7205
# 51 vertices

vn 0.0000 -1.0000 -0.0000
vn 0.0000 -1.0000 0.0000
vn -0.0000 -1.0000 -0.0000
vn -0.0000 -1.0000 0.0000
# 4 vertex normals

vt 0.4685 0.9330 0.0000
vt 0.4856 0.9330 0.0000
vt 0.4849 0.9996 0.0000
vt 0.4743 0.9996 0.0000
vt 0.5078 0.9330 0.0000
vt 0.4980 0.9996 0.0000
vt 0.4303 0.4398 0.0000
vt 0.4824 0.4399 0.0000
vt 0.4825 0.5015 0.0000
vt 0.4307 0.5015 0.0000
vt 0.5495 0.4399 0.0000
vt 0.5492 0.5015 0.0000
vt 0.4798 0.0084 0.0000
vt 0.4867 0.0084 0.0000
vt 0.4852 0.0701 0.0000
vt 0.4622 0.0700 0.0000
vt 0.4843 0.1317 0.0000
vt 0.4519 0.1317 0.0000
vt 0.4836 0.1933 0.0000
vt 0.4444 0.1933 0.0000
vt 0.4831 0.2550 0.0000
vt 0.4392 0.2549 0.0000
vt 0.4826 0.3166 0.0000
vt 0.4336 0.3166 0.0000
vt 0.4826 0.3782 0.0000
vt 0.4329 0.3782 0.0000
vt 0.4622 0.8713 0.0000
vt 0.4851 0.8713 0.0000
vt 0.4559 0.8097 0.0000
vt 0.4846 0.8097 0.0000
vt 0.4470 0.7480 0.0000
vt 0.4838 0.7481 0.0000
vt 0.4422 0.6864 0.0000
vt 0.4835 0.6864 0.0000
vt 0.4386 0.6248 0.0000
vt 0.4832 0.6248 0.0000
vt 0.4347 0.5631 0.0000
vt 0.4828 0.5631 0.0000
vt 0.4957 0.0084 0.0000
vt 0.5148 0.0701 0.0000
vt 0.5260 0.1317 0.0000
vt 0.5341 0.1933 0.0000
vt 0.5398 0.2550 0.0000
vt 0.5458 0.3166 0.0000
vt 0.5467 0.3783 0.0000
vt 0.5146 0.8713 0.0000
vt 0.5215 0.8097 0.0000
vt 0.5314 0.7481 0.0000
vt 0.5366 0.6864 0.0000
vt 0.5407 0.6248 0.0000
vt 0.5449 0.5632 0.0000
# 51 texture coords

g slayer1
usemtl Material__25
s 1
f 1/1/1 2/2/1 3/3/1 4/4/1 
f 5/5/1 6/6/1 3/3/1 2/2/1 
s off
f 7/7/2 8/8/2 9/9/2 10/10/2 
f 8/8/2 11/11/2 12/12/2 9/9/2 
f 13/13/1 14/14/1 15/15/1 16/16/1 
f 16/16/1 15/15/1 17/17/1 18/18/1 
f 18/18/2 17/17/2 19/19/2 20/20/2 
f 20/20/2 19/19/2 21/21/2 22/22/2 
f 22/22/2 21/21/2 23/23/2 24/24/2 
f 24/24/1 23/23/1 25/25/1 26/26/1 
f 26/26/1 25/25/1 8/8/1 7/7/1 
f 2/2/2 1/1/2 27/27/2 28/28/2 
f 28/28/1 27/27/1 29/29/1 30/30/1 
f 30/30/2 29/29/2 31/31/2 32/32/2 
f 32/32/1 31/31/1 33/33/1 34/34/1 
f 34/34/2 33/33/2 35/35/2 36/36/2 
f 36/36/1 35/35/1 37/37/1 38/38/1 
f 38/38/2 37/37/2 10/10/2 9/9/2 
f 14/14/3 39/39/3 40/40/3 15/15/3 
f 15/15/1 40/40/1 41/41/1 17/17/1 
f 17/17/2 41/41/2 42/42/2 19/19/2 
f 19/19/2 42/42/2 43/43/2 21/21/2 
f 21/21/2 43/43/2 44/44/2 23/23/2 
f 23/23/2 44/44/2 45/45/2 25/25/2 
f 25/25/1 45/45/1 11/11/1 8/8/1 
f 5/5/4 2/2/4 28/28/4 46/46/4 
f 46/46/3 28/28/3 30/30/3 47/47/3 
f 47/47/2 30/30/2 32/32/2 48/48/2 
f 48/48/1 32/32/1 34/34/1 49/49/1 
f 49/49/2 34/34/2 36/36/2 50/50/2 
f 50/50/3 36/36/3 38/38/3 51/51/3 
f 51/51/2 38/38/2 9/9/2 12/12/2 
# 32 polygons

